<!-- Generated by IcoMoon.io -->
<svg version="1.1" xmlns="http://www.w3.org/2000/svg" width="1095" height="1024" viewBox="0 0 1095 1024">
<g id="icomoon-ignore">
</g>
<path d="M0.957 770.42c-4.893 7.233 9.999 24.996 18.295 24.465l56.481 0.532c6.276 0.532 12.232-2.446 15.636-7.765l147.638-262.621c4.574-8.084 9.36-15.955 14.572-23.614l207.948-310.061-116.792 330.165-185.292 474.505c-4.787 12.87 4.042 26.698 17.657 27.762l62.012 0.213c8.935 0.745 17.551-3.404 22.55-10.743l251.346-481.419c169.018-348.354 466.528-451.956 577.256-504.607 5.106-2.446 5.425-9.892 3.829-15.317-0.745-2.446-33.187-18.508-54.673-9.041s-394.092 131.47-617.889 606.082l-150.935 276.024c-2.553 3.404-7.871 0.532-6.488-3.404l137.852-373.031 96.050-262.621c7.978-21.912 16.806-43.504 26.486-64.671l41.164-90.519c4.148-11.381-3.723-23.614-15.742-24.677l-59.566 0.213c-8.084-0.638-15.955 3.085-20.529 9.786l-136.895 224.329-124.344 179.123c-15.317 23.507-31.272 46.695-47.865 69.352l-118.068 161.572z"></path>
<path d="M636.61 716.598h-97.433l-37.441 73.181c-4.361 8.509-21.274 8.935-36.697 8.935-7.446 0-14.572-2.127-12.977-9.36 0-1.276 0.745-2.127 1.596-3.829l154.233-294c3.936-7.658 26.060-8.935 37.441-8.935 4.361 0 7.871 3.404 9.041 9.36l37.867 293.574v3.829c-1.596 7.233-10.211 9.36-16.912 9.36-17.338 0-29.996-0.851-30.74-10.211l-7.871-71.904zM560.025 672.349h72.649l-12.232-108.92c0-4.68 0-10.211 0.425-14.891-1.596 4.68-3.191 10.211-5.531 14.891l-55.205 108.92z"></path>
<path d="M796.693 674.902c-11.488 58.289-4.68 80.839 51.269 80.839h3.191c23.294 0 44.568-4.255 56.375-6.382 8.297-1.276 6.701 20.423 4.361 33.612-2.021 10.211-38.292 15.742-61.161 15.742h-3.191c-94.348 0-118.387-28.932-101.049-116.153l16.593-83.818c16.912-87.221 47.334-116.153 130.619-116.153h3.191c20.954 0 73.394 4.68 71.053 15.317-3.51 17.87-9.041 34.463-15.423 33.612-8.297-1.276-33.506-5.957-56.056-5.957h-3.191c-56.8 0-71.798 22.55-83.286 80.839l-13.402 68.501z"></path>
<path d="M981.453 798.714c-9.467 0-34.676-1.702-33.506-8.935l58.821-298.254c1.596-7.233 27.656-8.935 37.122-8.935 6.701 0 11.062 5.106 9.892 11.488l-57.651 293.149c-1.596 6.808-7.871 11.488-14.572 11.488z"></path>
<path d="M832.645 857.109c2.766 0 14.466-1.808 16.7-1.808s4.042 0.638 5.425 2.234c0.638 0.638 0.638 0.851 0.638 1.915 0 2.234-1.17 4.255-1.915 6.382-0.319 0.851-0.851 1.596-1.489 1.596-0.745 0-1.489-0.319-2.234-0.319-1.17 0-3.085 0.106-4.255 0.319-7.233 0.957-16.593 1.596-19.359 2.021-0.851 0.213-1.276 0.319-1.596 1.276-1.489 4.68-3.723 14.147-4.999 23.507-0.425 3.191-0.745 4.893-4.999 4.893-0.745 0-2.127 0.957-2.659 0.957-3.297 0-4.148-1.596-4.148-2.234 0-8.403 2.34-12.445 4.148-21.167l0.851-4.361s0.106-0.638 0.106-0.851c0-0.638-0.319-0.851-0.745-0.851h-5.637c-4.467 0-12.232-0.957-13.934-1.596-1.489-0.638-2.659-4.042-2.659-9.148 0-0.851 0.638-1.383 1.276-2.021 0.851-0.851 1.596-1.17 2.659-1.17 0.638 0 1.064 0 2.021 0.319 2.553 0.851 10.956 0.957 13.296 0.957h4.042c1.915 0 3.297-0.106 3.51-1.17 1.064-3.297 4.042-13.721 4.467-15.742 1.383-6.169 2.34-8.403 3.404-8.829 3.51-1.064 4.893-2.127 6.169-2.127 1.17 0 3.51 0.425 4.042 0.957 0.425 0.425 0.745 0.957 0.745 1.596 0 0.425-0.425 1.383-0.638 2.127-4.148 14.679-5.425 19.040-5.957 20.529-0.319 0.851-0.319 0.957-0.319 1.17 0 0.425 0.319 0.425 0.638 0.425 1.17 0 2.234-0.213 3.297-0.213z"></path>
<path d="M914.548 875.298c2.127 0 4.893 3.723 4.893 4.148 0 0.638-0.638 0.957-0.638 1.596 0 0.957-0.106 1.489-1.17 1.915-4.574 2.021-9.892 6.488-16.274 12.126-8.297 7.127-15.636 11.807-21.912 11.807-8.084 0-14.147-6.169-14.891-7.871-1.17-2.553-1.808-4.893-1.808-7.552 0-3.829 1.276-7.978 2.34-11.913 0.319-1.064 0.745-4.042 1.808-6.169 7.658-16.593 18.295-36.059 30.74-42.76 0.851-0.425 1.17-0.425 2.34-0.425 4.999 0 11.488 2.553 15.423 6.701 0.638 0.638 0.638 0.957 0.638 2.234 0 1.808 0.319 1.915 0.319 2.34 0 0.319 0 0.425-0.106 1.17-0.425 1.915-4.999 9.36-4.999 14.998 0 1.276-0.851 2.446-2.766 2.446-1.064 0-2.021-0.319-2.978-1.17l-3.829-2.978c-1.17-0.957-1.596-2.234-1.596-3.51 0-3.191 3.297-7.020 3.297-9.573 0-0.638-0.425-1.596-1.17-1.596-0.851 0-1.17 0.319-2.34 1.596-6.169 6.701-12.977 16.061-18.082 25.741-5.212 9.892-8.616 20.423-8.616 24.358 0 2.127 1.17 3.297 2.553 3.297 6.808 0 13.721-4.148 20.954-9.999 6.488-5.318 13.934-10.849 18.082-10.849z"></path>
<path d="M967.412 841.154c5.957 0 9.36-0.425 12.764-0.425 4.68 0 9.148 1.596 9.148 4.148 0 2.021-3.723 2.553-4.148 3.297-0.319 0.638-0.638 0.851-1.596 0.957-2.978 0.425-7.233 2.127-11.062 2.766-2.978 0.425-4.787 0.425-5.744 0.425-1.17 0-1.489 0.106-1.808 1.276-3.829 17.125-9.148 31.91-18.614 42.76-4.148 4.787-8.084 9.36-13.296 9.36-1.276 0-2.659-0.319-3.51-0.851-5.637-2.872-9.786-6.382-11.062-9.999-1.596-4.467-2.234-9.254-2.234-13.296 0-13.083 6.063-24.571 12.87-35.527 2.021-3.404 2.021-2.553 3.51-4.787 4.787-7.127 10.956-14.679 17.444-14.679 2.34 0 5.318 0.638 7.871 3.085 1.17 1.064 1.596 1.383 2.127 2.659 1.276 4.042 3.297 8.722 7.552 8.722zM951.138 840.516c-0.425-1.596-0.851-2.659-1.489-2.659s-1.489 0.638-2.234 1.596c-0.638 0.745-2.021 1.596-2.766 2.659-4.574 6.169-18.508 25.954-18.508 44.674 0 0.425 0 1.17 0.425 2.234 0.425 1.276 2.234 4.361 3.51 5.318 0.425 0.319 0.851 0.319 1.276 0.319 1.489 0 2.234-0.957 2.766-1.276 1.064-0.425 1.276-0.957 2.553-2.872 8.616-13.828 16.593-26.273 16.593-42.441 0-0.638 0-2.553-0.106-3.404-0.106-1.064-0.425-1.276-0.851-1.808-0.745-0.745-1.064-1.808-1.17-2.34z"></path>
</svg>
