<?xml version="1.0" encoding="UTF-8"?>
<svg id="Layer_2" data-name="Layer 2" xmlns="http://www.w3.org/2000/svg" viewBox="0 0 1094.95 1024.17">
  <defs>
    <style>
      .cls-1 {
        fill: #f7f3f0;
        stroke-width: 0px;
      }
    </style>
  </defs>
  <g id="Layer_1-2" data-name="Layer 1">
    <path class="cls-1" d="M.96,770.5c-4.89,7.23,10,25,18.3,24.47l56.48.53c6.28.53,12.23-2.45,15.64-7.77l147.64-262.62c4.57-8.08,9.36-15.95,14.57-23.61l207.95-310.06-116.79,330.17-185.29,474.51c-4.79,12.87,4.04,26.7,17.66,27.76l62.01.21c8.93.74,17.55-3.4,22.55-10.74l251.35-481.42C682.03,183.57,979.54,79.97,1090.27,27.32c5.11-2.45,5.43-9.89,3.83-15.32-.74-2.45-33.19-18.51-54.67-9.04s-394.09,131.47-617.89,606.08l-150.93,276.02c-2.55,3.4-7.87.53-6.49-3.4l137.85-373.03,96.05-262.62c7.98-21.91,16.81-43.5,26.49-64.67l41.16-90.52c4.15-11.38-3.72-23.61-15.74-24.68l-59.57.21c-8.08-.64-15.95,3.08-20.53,9.79l-136.89,224.33-124.34,179.12c-15.32,23.51-31.27,46.7-47.87,69.35l-118.07,161.57L.96,770.5Z"/>
    <path class="cls-1" d="M636.62,716.68h-97.43l-37.44,73.18c-4.36,8.51-21.27,8.93-36.7,8.93-7.45,0-14.57-2.13-12.98-9.36,0-1.28.74-2.13,1.6-3.83l154.23-294c3.94-7.66,26.06-8.93,37.44-8.93,4.36,0,7.87,3.4,9.04,9.36l37.87,293.57v3.83c-1.6,7.23-10.21,9.36-16.91,9.36-17.34,0-30-.85-30.74-10.21l-7.87-71.9h-.11ZM560.03,672.43h72.65l-12.23-108.92c0-4.68,0-10.21.42-14.89-1.6,4.68-3.19,10.21-5.53,14.89l-55.21,108.92h-.11Z"/>
    <path class="cls-1" d="M796.7,674.99c-11.49,58.29-4.68,80.84,51.27,80.84h3.19c23.29,0,44.57-4.26,56.38-6.38,8.3-1.28,6.7,20.42,4.36,33.61-2.02,10.21-38.29,15.74-61.16,15.74h-3.19c-94.35,0-118.39-28.93-101.05-116.15l16.59-83.82c16.91-87.22,47.33-116.15,130.62-116.15h3.19c20.95,0,73.39,4.68,71.05,15.32-3.51,17.87-9.04,34.46-15.42,33.61-8.3-1.28-33.51-5.96-56.06-5.96h-3.19c-56.8,0-71.8,22.55-83.29,80.84l-13.4,68.5h.11Z"/>
    <path class="cls-1" d="M981.46,798.8c-9.47,0-34.68-1.7-33.51-8.93l58.82-298.25c1.6-7.23,27.66-8.93,37.12-8.93,6.7,0,11.06,5.11,9.89,11.49l-57.65,293.15c-1.6,6.81-7.87,11.49-14.57,11.49h-.11Z"/>
    <path class="cls-1" d="M832.65,857.19c2.77,0,14.47-1.81,16.7-1.81s4.04.64,5.42,2.23c.64.64.64.85.64,1.91,0,2.23-1.17,4.26-1.91,6.38-.32.85-.85,1.6-1.49,1.6-.74,0-1.49-.32-2.23-.32-1.17,0-3.09.11-4.26.32-7.23.96-16.59,1.6-19.36,2.02-.85.21-1.28.32-1.6,1.28-1.49,4.68-3.72,14.15-5,23.51-.42,3.19-.74,4.89-5,4.89-.74,0-2.13.96-2.66.96-3.3,0-4.15-1.6-4.15-2.23,0-8.4,2.34-12.45,4.15-21.17l.85-4.36s.11-.64.11-.85c0-.64-.32-.85-.74-.85h-5.64c-4.47,0-12.23-.96-13.93-1.6-1.49-.64-2.66-4.04-2.66-9.15,0-.85.64-1.38,1.28-2.02.85-.85,1.6-1.17,2.66-1.17.64,0,1.06,0,2.02.32,2.55.85,10.96.96,13.3.96h4.04c1.91,0,3.3-.11,3.51-1.17,1.06-3.3,4.04-13.72,4.47-15.74,1.38-6.17,2.34-8.4,3.4-8.83,3.51-1.06,4.89-2.13,6.17-2.13,1.17,0,3.51.42,4.04.96.42.42.74.96.74,1.6,0,.42-.42,1.38-.64,2.13-4.15,14.68-5.42,19.04-5.96,20.53-.32.85-.32.96-.32,1.17,0,.42.32.42.64.42,1.17,0,2.23-.21,3.3-.21l.11.43Z"/>
    <path class="cls-1" d="M914.56,875.38c2.13,0,4.89,3.72,4.89,4.15,0,.64-.64.96-.64,1.6,0,.96-.11,1.49-1.17,1.91-4.57,2.02-9.89,6.49-16.27,12.13-8.3,7.13-15.64,11.81-21.91,11.81-8.08,0-14.15-6.17-14.89-7.87-1.17-2.55-1.81-4.89-1.81-7.55,0-3.83,1.28-7.98,2.34-11.91.32-1.06.74-4.04,1.81-6.17,7.66-16.59,18.29-36.06,30.74-42.76.85-.42,1.17-.42,2.34-.42,5,0,11.49,2.55,15.42,6.7.64.64.64.96.64,2.23,0,1.81.32,1.91.32,2.34,0,.32,0,.42-.11,1.17-.42,1.91-5,9.36-5,15,0,1.28-.85,2.45-2.77,2.45-1.06,0-2.02-.32-2.98-1.17l-3.83-2.98c-1.17-.96-1.6-2.23-1.6-3.51,0-3.19,3.3-7.02,3.3-9.57,0-.64-.42-1.6-1.17-1.6-.85,0-1.17.32-2.34,1.6-6.17,6.7-12.98,16.06-18.08,25.74-5.21,9.89-8.62,20.42-8.62,24.36,0,2.13,1.17,3.3,2.55,3.3,6.81,0,13.72-4.15,20.95-10,6.49-5.32,13.93-10.85,18.08-10.85l-.21-.11Z"/>
    <path class="cls-1" d="M967.42,841.24c5.96,0,9.36-.42,12.76-.42,4.68,0,9.15,1.6,9.15,4.15,0,2.02-3.72,2.55-4.15,3.3-.32.64-.64.85-1.6.96-2.98.42-7.23,2.13-11.06,2.77-2.98.42-4.79.42-5.74.42-1.17,0-1.49.11-1.81,1.28-3.83,17.12-9.15,31.91-18.61,42.76-4.15,4.79-8.08,9.36-13.3,9.36-1.28,0-2.66-.32-3.51-.85-5.64-2.87-9.79-6.38-11.06-10-1.6-4.47-2.23-9.25-2.23-13.3,0-13.08,6.06-24.57,12.87-35.53,2.02-3.4,2.02-2.55,3.51-4.79,4.79-7.13,10.96-14.68,17.44-14.68,2.34,0,5.32.64,7.87,3.09,1.17,1.06,1.6,1.38,2.13,2.66,1.28,4.04,3.3,8.72,7.55,8.72l-.21.11ZM951.15,840.6c-.42-1.6-.85-2.66-1.49-2.66s-1.49.64-2.23,1.6c-.64.74-2.02,1.6-2.77,2.66-4.57,6.17-18.51,25.95-18.51,44.67,0,.42,0,1.17.42,2.23.42,1.28,2.23,4.36,3.51,5.32.42.32.85.32,1.28.32,1.49,0,2.23-.96,2.77-1.28,1.06-.42,1.28-.96,2.55-2.87,8.62-13.83,16.59-26.27,16.59-42.44,0-.64,0-2.55-.11-3.4-.11-1.06-.42-1.28-.85-1.81-.74-.74-1.06-1.81-1.17-2.34h0Z"/>
  </g>
</svg>